<svg width="35" height="42" viewBox="0 0 35 42" fill="none" xmlns="http://www.w3.org/2000/svg">
<path d="M33.375 18.8438V25.3125C33.375 27.2003 33.0032 29.0695 32.2808 30.8136C31.5584 32.5576 30.4995 34.1423 29.1647 35.4772C27.8298 36.812 26.2452 37.8709 24.5011 38.5933C22.757 39.3157 20.8878 39.6875 19 39.6875C11.0614 39.6875 8.97166 35.375 2.23158 23.5156C1.76254 22.6907 1.63884 21.7136 1.88749 20.7978C2.13613 19.882 2.73693 19.1016 3.55878 18.6271C4.38062 18.1526 5.35679 18.0225 6.27426 18.265C7.19173 18.5076 7.97601 19.1032 8.45596 19.9219L11.8125 25.3125V5.90625C11.8125 4.95313 12.1911 4.03904 12.8651 3.36509C13.5391 2.69113 14.4531 2.3125 15.4063 2.3125C16.3594 2.3125 17.2735 2.69113 17.9474 3.36509C18.6214 4.03904 19 4.95313 19 5.90625V15.9688C19 15.0156 19.3786 14.1015 20.0526 13.4276C20.7266 12.7536 21.6406 12.375 22.5938 12.375C23.5469 12.375 24.461 12.7536 25.1349 13.4276C25.8089 14.1015 26.1875 15.0156 26.1875 15.9688V18.8438C26.1875 17.8906 26.5661 16.9765 27.2401 16.3026C27.9141 15.6286 28.8281 15.25 29.7813 15.25C30.7344 15.25 31.6485 15.6286 32.3224 16.3026C32.9964 16.9765 33.375 17.8906 33.375 18.8438Z" fill="white"/>
<path d="M29.7813 13.8125C28.9433 13.8116 28.1185 14.021 27.3824 14.4216C27.1623 13.7402 26.7993 13.1136 26.3176 12.5837C25.836 12.0538 25.2467 11.6329 24.5893 11.349C23.9319 11.0651 23.2214 10.9248 22.5054 10.9375C21.7895 10.9502 21.0844 11.1156 20.4375 11.4227V5.90625C20.4375 4.57188 19.9074 3.29216 18.9639 2.34862C18.0203 1.40508 16.7406 0.875 15.4063 0.875C14.0719 0.875 12.7922 1.40508 11.8486 2.34862C10.9051 3.29216 10.375 4.57188 10.375 5.90625V20.2812L9.6886 19.1798C9.35671 18.6081 8.91548 18.1075 8.3901 17.7064C7.86472 17.3052 7.26548 17.0115 6.62659 16.842C5.33629 16.4996 3.96284 16.6839 2.80837 17.3541C1.6539 18.0244 0.812985 19.1259 0.470614 20.4162C0.128243 21.7065 0.312462 23.0799 0.982744 24.2344L1.82189 25.7132C8.00493 36.613 10.5637 41.125 19 41.125C23.1923 41.1202 27.2115 39.4528 30.1759 36.4884C33.1403 33.524 34.8078 29.5048 34.8125 25.3125V18.8438C34.8125 17.5094 34.2824 16.2297 33.3389 15.2861C32.3954 14.3426 31.1156 13.8125 29.7813 13.8125ZM31.9375 25.3125C31.9337 28.7426 30.5694 32.0311 28.144 34.4565C25.7186 36.8819 22.4301 38.2462 19 38.25C12.2384 38.25 10.4038 35.0156 4.32313 24.2919L3.4804 22.8059V22.7969C3.19426 22.3021 3.11624 21.714 3.26348 21.1618C3.41072 20.6096 3.77117 20.1384 4.26564 19.8518C4.59317 19.6621 4.96525 19.5629 5.34376 19.5643C5.7228 19.5637 6.09529 19.6631 6.42369 19.8524C6.75209 20.0417 7.02479 20.3142 7.21431 20.6424C7.22163 20.6568 7.23003 20.6706 7.23946 20.6838L10.5942 26.0744C10.7598 26.3387 11.0069 26.5421 11.2981 26.6537C11.5894 26.7653 11.9091 26.7791 12.2089 26.6931C12.5087 26.6071 12.7725 26.4259 12.9603 26.1769C13.1481 25.9278 13.2498 25.6244 13.25 25.3125V5.90625C13.25 5.33438 13.4772 4.78593 13.8816 4.38155C14.2859 3.97718 14.8344 3.75 15.4063 3.75C15.9781 3.75 16.5266 3.97718 16.931 4.38155C17.3353 4.78593 17.5625 5.33438 17.5625 5.90625V18.125C17.5625 18.5062 17.714 18.8719 17.9835 19.1415C18.2531 19.4111 18.6188 19.5625 19 19.5625C19.3813 19.5625 19.7469 19.4111 20.0165 19.1415C20.2861 18.8719 20.4375 18.5062 20.4375 18.125V15.9688C20.4375 15.3969 20.6647 14.8484 21.0691 14.4441C21.4734 14.0397 22.0219 13.8125 22.5938 13.8125C23.1656 13.8125 23.7141 14.0397 24.1185 14.4441C24.5228 14.8484 24.75 15.3969 24.75 15.9688V19.5625C24.75 19.9437 24.9015 20.3094 25.171 20.579C25.4406 20.8486 25.8063 21 26.1875 21C26.5688 21 26.9344 20.8486 27.204 20.579C27.4736 20.3094 27.625 19.9437 27.625 19.5625V18.8438C27.625 18.2719 27.8522 17.7234 28.2566 17.3191C28.6609 16.9147 29.2094 16.6875 29.7813 16.6875C30.3531 16.6875 30.9016 16.9147 31.306 17.3191C31.7103 17.7234 31.9375 18.2719 31.9375 18.8438V25.3125Z" fill="black"/>
</svg>
